<?xml version="1.0" encoding="UTF-8"?>
<svg width="26px" height="26px" viewBox="0 0 26 26" version="1.1" xmlns="http://www.w3.org/2000/svg" xmlns:xlink="http://www.w3.org/1999/xlink">
    <!-- Generator: Sketch 55.1 (78136) - https://sketchapp.com -->
    <title>envelope-open-text</title>
    <desc>Created with Sketch.</desc>
    <defs>
        <path d="M11.1013645,13.0750487 L18.8986355,13.0750487 C19.3294347,13.0750487 19.6783626,12.7261208 19.6783626,12.2953216 L19.6783626,11.5155945 C19.6783626,11.0847953 19.3294347,10.7358674 18.8986355,10.7358674 L11.1013645,10.7358674 C10.6705653,10.7358674 10.3216374,11.0847953 10.3216374,11.5155945 L10.3216374,12.2953216 C10.3216374,12.7261208 10.6705653,13.0750487 11.1013645,13.0750487 Z M10.3216374,16.9736842 C10.3216374,17.4044834 10.6705653,17.7534113 11.1013645,17.7534113 L18.8986355,17.7534113 C19.3294347,17.7534113 19.6783626,17.4044834 19.6783626,16.9736842 L19.6783626,16.1939571 C19.6783626,15.7631579 19.3294347,15.41423 18.8986355,15.41423 L11.1013645,15.41423 C10.6705653,15.41423 10.3216374,15.7631579 10.3216374,16.1939571 L10.3216374,16.9736842 Z M15,22.8767057 C14.1998051,22.8767057 13.3996101,22.630117 12.7163743,22.1364523 L2.52436641,14.7738791 L2.52436641,25.1608188 C2.52436641,26.4527291 3.57163737,27.5000001 4.86354771,27.5000001 L25.1364523,27.5000001 C26.4283626,27.5000001 27.4756336,26.4527291 27.4756336,25.1608188 L27.4756336,14.7738791 L17.2836257,22.1364523 C16.6003899,22.6296297 15.8001949,22.8767057 15,22.8767057 Z M26.5794348,10.4897661 C26.1481482,10.1515594 25.7392788,9.83333331 25.1364523,9.37816761 L25.1364523,7.22709548 C25.1364523,5.93518514 24.0891813,4.88791418 22.797271,4.88791418 L19.0180312,4.88791418 C18.8698831,4.7807017 18.7319688,4.68031184 18.5774854,4.56822607 C17.7582846,3.97027285 16.1306043,2.53167635 15,2.54873288 C13.8693957,2.53167635 12.2422027,3.97027285 11.4225146,4.56822607 C11.2680312,4.68031184 11.1301169,4.7807017 10.9819688,4.88791418 L7.20272901,4.88791418 C5.91081867,4.88791418 4.86354771,5.93518514 4.86354771,7.22709548 L4.86354771,9.37816761 C4.26072119,9.83284598 3.8518518,10.1515594 3.42056524,10.4897661 C2.85492373,10.9330527 2.52436641,11.6117625 2.52436641,12.3304093 L2.52436641,12.8494152 L7.20272901,16.2290448 L7.20272901,7.22709548 L22.797271,7.22709548 L22.797271,16.2290448 L27.4756336,12.8494152 L27.4756336,12.3304093 C27.4756336,11.6120858 27.1452242,10.9332358 26.5794348,10.4897661 Z" id="path-1"></path>
    </defs>
    <g id="Page-1" stroke="none" stroke-width="1" fill="none" fill-rule="evenodd">
        <g id="Desktop-HD-altmind" transform="translate(-930.000000, -2433.000000)">
            <g id="Contact-us" transform="translate(0.000000, 2038.000000)">
                <g id="Contact-Information" transform="translate(927.000000, 298.000000)">
                    <g id="email" transform="translate(1.250000, 93.750000)">
                        <g id="envelope-open-text" transform="translate(0.000000, 1.250000)">
                            <mask id="mask-2" fill="white">
                                <use xlink:href="#path-1"></use>
                            </mask>
                            <g fill-rule="nonzero"></g>
                            <g id="🎨-color" stroke-width="1" fill-rule="evenodd" mask="url(#mask-2)" fill="#FFFFFF">
                                <rect id="🎨-Color" x="0" y="0" width="30" height="30"></rect>
                            </g>
                        </g>
                    </g>
                </g>
            </g>
        </g>
    </g>
</svg>