<?xml version="1.0" encoding="iso-8859-1"?>
<!-- Generator: Adobe Illustrator 19.0.0, SVG Export Plug-In . SVG Version: 6.00 Build 0)  -->
<svg version="1.1" id="Capa_1" xmlns="http://www.w3.org/2000/svg" xmlns:xlink="http://www.w3.org/1999/xlink" x="0px" y="0px"
	 viewBox="0 0 600 600" style="enable-background:new 0 0 600 600;" xml:space="preserve" fill='#1b95f8'>
<g>
	<g>
		<path d="M425.5,160l-0.3,0.4V43.7H300.9L254.1,0l-46.8,43.7H83v115.9l-81.5,76V508h505V235.7L425.5,160z M425.2,181.9l60.2,56.2
			l-60.2,40.2V181.9z M254.1,22.3l23,21.4h-46L254.1,22.3z M99.3,60h309.6v103.2v126L254.1,392.3L99.3,289.2V60z M83,181.9v96.4
			l-60.2-40.2L83,181.9z M17.9,254.4l135.4,90.3L17.9,480.2V254.4z M29.4,491.7l137.8-137.8l86.9,58l86.9-58l137.8,137.8H29.4z
			 M490.4,480.2L354.9,344.7l135.5-90.3V480.2z"/>
	</g>
</g>
<g>
	<g>
		<path d="M318,234.2c-6,7.5-13.8,13.2-23.6,17c-9.7,3.8-21.4,5.7-34.9,5.7c-14.1,0-26.5-2.3-37.5-6.8
			c-10.9-4.5-19.4-11.7-25.4-21.5s-9.1-20.7-9.1-32.6c0-12.3,2.7-24.1,8.1-35.5c5.4-11.4,13.5-20.2,24.1-26.4
			c10.7-6.3,23.7-9.4,39.1-9.4c18.1,0,32.2,4.7,42.3,14.1c10.1,9.4,15.1,21,15.1,35c0,7.8-1.8,15.3-5.4,22.5
			c-3.6,7.3-8.2,13-14,17.3c-4.3,3.3-7.8,4.9-10.5,4.9c-0.9,0-1.7-0.4-2.3-1.1s-1-1.8-1-3.2c0-1.1,0.4-3.6,1.2-7.5l12.8-61h-22.4
			l-2.1,9.4c-4.8-7.7-12.3-11.6-22.4-11.6c-14.2,0-25.8,6.7-34.9,20.1c-7.5,11-11.2,23.2-11.2,36.5c0,10.8,3.1,19.4,9.3,25.9
			c6.2,6.5,14,9.7,23.4,9.7c8.7,0,16.4-3.2,23.1-9.7c0.8,3.2,2.4,5.6,4.8,7.2c2.4,1.6,5.9,2.5,10.6,2.5c17.5,0,31.8-7.4,42.9-22.1
			c8.9-11.7,13.3-24.7,13.3-39.2c0-12.1-2.9-23.3-8.8-33.5c-5.9-10.2-14.4-18.1-25.5-23.7c-11.1-5.6-23.8-8.3-38.1-8.3
			c-16.8,0-31.8,3.4-44.9,10.3c-13.1,6.9-23.4,17.2-30.9,30.9s-11.3,28.6-11.3,44.5c0,14.5,3.3,27.9,9.9,40.3
			c6.9,12.4,17,21.7,30.6,28c13.6,6.3,29.8,9.5,48.5,9.5c19.3,0,35.7-3.7,49.1-11.2c11.7-6.5,20.4-15.5,26.1-27H318z M264.6,197.3
			c-2.2,6.6-4.8,11.7-7.8,15.1c-2.1,2.4-4.2,4.2-6.4,5.4c-2.8,1.6-5.9,2.4-9.1,2.4c-4.3,0-7.9-1.7-10.8-5.1
			c-2.9-3.4-4.4-8.7-4.4-15.9c0-5.4,1-11.6,3.1-18.5c2.1-7,5.2-12.3,9.4-16.1c4.1-3.8,8.6-5.7,13.5-5.7c4.5,0,8.3,1.7,11.3,5.1
			c3,3.4,4.5,8.3,4.5,14.8C267.8,184.5,266.7,190.7,264.6,197.3z"/>
	</g>
</g>
<g>
	<g>
		<rect x="246" y="304.4" width="16.3" height="16.3"/>
	</g>
</g>
<g>
	<g>
		<rect x="278.5" y="304.4" width="16.3" height="16.3"/>
	</g>
</g>
<g>
	<g>
		<rect x="213.4" y="304.4" width="16.3" height="16.3"/>
	</g>
</g>
<g>
</g>
<g>
</g>
<g>
</g>
<g>
</g>
<g>
</g>
<g>
</g>
<g>
</g>
<g>
</g>
<g>
</g>
<g>
</g>
<g>
</g>
<g>
</g>
<g>
</g>
<g>
</g>
<g>
</g>
</svg>
