<svg width="64" height="64" viewBox="0 0 64 64" fill="none" xmlns="http://www.w3.org/2000/svg">
<path d="M56.8889 0H7.11111C3.18222 0 0 3.18222 0 7.11111V56.8889C0 60.8178 3.18222 64 7.11111 64H34.208V39.2498H25.8773V29.5609H34.208V22.432C34.208 14.1689 39.2604 9.664 46.6347 9.664C49.12 9.65689 51.6018 9.78489 54.0729 10.0373V18.6773H48.9956C44.9778 18.6773 44.1956 20.576 44.1956 23.3778V29.5467H53.7956L52.5476 39.2356H44.1387V64H56.8889C60.8178 64 64 60.8178 64 56.8889V7.11111C64 3.18222 60.8178 0 56.8889 0Z" fill="black"/>
</svg>
