<svg width="64" height="64" viewBox="0 0 64 64" fill="none" xmlns="http://www.w3.org/2000/svg">
<path d="M9.14286 0H54.8571C59.8857 0 64 4.11429 64 9.14286V54.8571C64 59.8857 59.8857 64 54.8571 64H9.14286C4.11429 64 0 59.8857 0 54.8571V9.14286C0 4.11429 4.11429 0 9.14286 0Z" fill="black"/>
<path d="M44.1143 17.6001C42.7428 17.6001 41.3714 18.743 41.3714 20.343C41.3714 21.943 42.5143 23.0858 44.1143 23.0858C45.7143 23.0858 46.8571 21.943 46.8571 20.343C46.6285 18.743 45.4857 17.6001 44.1143 17.6001Z" fill="white"/>
<path d="M32 21.0286C25.8286 21.0286 20.8 26.0571 20.8 32.2286C20.8 38.4 25.8286 43.4286 32 43.4286C38.1715 43.4286 43.2 38.4 43.2 32.2286C43.4286 26.0571 38.4 21.0286 32 21.0286ZM32 39.5429C28.1143 39.5429 24.6858 36.3429 24.6858 32.2286C24.6858 28.3429 27.8858 24.9143 32 24.9143C35.8858 24.9143 39.3143 28.1143 39.3143 32.2286C39.3143 36.3429 36.1143 39.5429 32 39.5429Z" fill="white"/>
<path d="M41.1428 9.14282H22.8571C15.3143 9.14282 9.14282 15.3143 9.14282 22.8571V41.1428C9.14282 48.6857 15.3143 54.8571 22.8571 54.8571H41.1428C48.6857 54.8571 54.8571 48.6857 54.8571 41.1428V22.8571C54.8571 15.3143 48.6857 9.14282 41.1428 9.14282ZM50.5142 41.1428C50.5142 46.4 46.1714 50.5142 41.1428 50.5142H22.8571C17.6 50.5142 13.4857 46.1714 13.4857 41.1428V22.8571C13.4857 17.6 17.8285 13.4857 22.8571 13.4857H41.1428C46.4 13.4857 50.5142 17.8285 50.5142 22.8571V41.1428Z" fill="white"/>
</svg>
