<svg width="64" height="64" viewBox="0 0 64 64" fill="none" xmlns="http://www.w3.org/2000/svg">
<path d="M56.8889 0H7.11111C3.18222 0 0 3.18222 0 7.11111V56.8889C0 60.8178 3.18222 64 7.11111 64H56.8889C60.8178 64 64 60.8178 64 56.8889V7.11111C64 3.18222 60.8178 0 56.8889 0ZM21.3333 49.7778H12.3627V24.8889H21.3333V49.7778ZM16.6898 20.3271C13.9484 20.3271 12.1173 18.4996 12.1173 16.0604C12.1173 13.6213 13.9449 11.7938 16.992 11.7938C19.7333 11.7938 21.5644 13.6213 21.5644 16.0604C21.5644 18.4996 19.7369 20.3271 16.6898 20.3271ZM53.3333 49.7778H44.6507V36.1742C44.6507 32.4124 42.336 31.5449 41.4684 31.5449C40.6009 31.5449 37.7067 32.1244 37.7067 36.1742C37.7067 36.7538 37.7067 49.7778 37.7067 49.7778H28.736V24.8889H37.7067V28.3627C38.8622 26.336 41.1769 24.8889 45.5182 24.8889C49.8596 24.8889 53.3333 28.3627 53.3333 36.1742V49.7778Z" fill="black"/>
</svg>
