<?xml version="1.0" encoding="UTF-8"?>
<svg width="66px" height="49px" viewBox="0 0 66 49" version="1.1" xmlns="http://www.w3.org/2000/svg" xmlns:xlink="http://www.w3.org/1999/xlink">
    <!-- Generator: Sketch 55.1 (78136) - https://sketchapp.com -->
    <title>symb 2</title>
    <desc>Created with Sketch.</desc>
    <g id="Page-1" stroke="none" stroke-width="1" fill="none" fill-rule="evenodd">
        <g id="Desktop-HD-altmind" transform="translate(-57.000000, -35.000000)" fill="#FFFFFF">
            <g id="About-page">
                <g id="Nav-bar" transform="translate(55.000000, 32.000000)">
                    <g id="Group">
                        <g id="symb-2">
                            <rect id="Rectangle" x="2.26399062" y="36.7847797" width="44.1245136" height="13.8615385" rx="6.93076923"></rect>
                            <path d="M32.8688668,20.5733767 L71.1894538,20.5412441 C75.0173746,20.5380343 78.1231196,23.6385752 78.1263294,27.4664961 C78.1263327,27.4703681 78.1263327,27.4742401 78.1263294,27.4781121 C78.1231169,31.3143345 75.0140482,34.4234066 71.1778258,34.4266233 L32.8572388,34.4587559 C29.029318,34.4619657 25.923573,31.3614248 25.9203632,27.5335039 C25.9203599,27.5296319 25.9203599,27.5257599 25.9203632,27.5218879 C25.9235757,23.6856655 29.0326444,20.5765934 32.8688668,20.5733767 Z" id="Rectangle" transform="translate(52.023346, 27.500000) rotate(-116.000000) translate(-52.023346, -27.500000) "></path>
                            <path d="M0.710361931,22.1739914 L33.5964709,22.203001 C37.4325608,22.2063849 40.5414807,25.315308 40.5448605,29.151398 C40.5482327,32.9787551 37.4482804,36.0841749 33.6209233,36.087547 C33.6168502,36.0875506 33.6127772,36.0875506 33.6087042,36.087547 L0.72259526,36.0585374 C-3.1134947,36.0551535 -6.22241452,32.9462304 -6.2257944,29.1101405 C-6.22916659,25.2827833 -3.12921428,22.1773636 0.698142887,22.1739914 C0.702215901,22.1739878 0.706288917,22.1739878 0.710361931,22.1739914 Z" id="Rectangle" transform="translate(17.159533, 29.130769) rotate(-242.000000) translate(-17.159533, -29.130769) "></path>
                            <path d="M15.6930311,22.1742933 L48.5754966,22.2018659 C52.4117189,22.2050827 55.5207877,25.3141548 55.5240002,29.1503771 C55.5272058,32.978298 52.4266615,36.0840396 48.5987406,36.0872452 C48.5948686,36.0872484 48.5909966,36.0872484 48.5871245,36.0872452 L15.704659,36.0596726 C11.8684367,36.0564558 8.75936798,32.9473837 8.75615544,29.1111613 C8.75294985,25.2832405 11.8534942,22.1774989 15.681415,22.1742933 C15.6852871,22.17429 15.6891591,22.17429 15.6930311,22.1742933 Z" id="Rectangle" transform="translate(32.140078, 29.130769) scale(-1, 1) rotate(-244.000000) translate(-32.140078, -29.130769) "></path>
                        </g>
                    </g>
                </g>
            </g>
        </g>
    </g>
</svg>