<svg width="685" height="95" viewBox="0 0 685 95" fill="none" xmlns="http://www.w3.org/2000/svg">
<path d="M2.105 94C1.593 94 1.12366 93.8293 0.696998 93.488C0.355664 93.1467 0.184998 92.6773 0.184998 92.08V2.992C0.184998 2.48 0.355664 2.05333 0.696998 1.712C1.12366 1.28533 1.593 1.072 2.105 1.072C2.617 1.072 3.04366 1.28533 3.385 1.712C3.81166 2.05333 4.025 2.48 4.025 2.992V92.08C4.025 92.6773 3.81166 93.1467 3.385 93.488C3.04366 93.8293 2.617 94 2.105 94ZM39.865 49.2H13.497C12.985 49.2 12.5157 49.0293 12.089 48.688C11.7477 48.2613 11.577 47.792 11.577 47.28C11.577 46.768 11.7477 46.3413 12.089 46C12.5157 45.5733 12.985 45.36 13.497 45.36H39.865C43.2783 45.36 46.393 44.848 49.209 43.824C52.1103 42.7147 54.585 41.2213 56.633 39.344C58.7663 37.4667 60.3877 35.248 61.497 32.688C62.6917 30.0427 63.289 27.184 63.289 24.112C63.4597 18.8213 61.8383 14.5547 58.425 11.312C54.1583 7.04533 48.057 4.91199 40.121 4.91199H13.113C12.601 4.91199 12.1317 4.74133 11.705 4.39999C11.3637 3.97333 11.193 3.504 11.193 2.992C11.193 2.48 11.3637 2.05333 11.705 1.712C12.1317 1.28533 12.601 1.072 13.113 1.072H40.121C44.5583 1.072 48.569 1.712 52.153 2.992C55.737 4.272 58.7237 6.10666 61.113 8.49599C65.209 12.7627 67.2143 17.968 67.129 24.112C67.129 27.696 66.4463 31.0667 65.081 34.224C63.7157 37.3813 61.7103 40.112 59.065 42.416C56.5903 44.6347 53.689 46.3413 50.361 47.536C47.1183 48.6453 43.6197 49.2 39.865 49.2ZM2.105 94C1.593 94 1.12366 93.8293 0.696998 93.488C0.355664 93.1467 0.184998 92.6773 0.184998 92.08V2.992C0.184998 2.48 0.355664 2.05333 0.696998 1.712C1.12366 1.28533 1.593 1.072 2.105 1.072C2.617 1.072 3.04366 1.28533 3.385 1.712C3.81166 2.05333 4.025 2.48 4.025 2.992V92.08C4.025 92.6773 3.81166 93.1467 3.385 93.488C3.04366 93.8293 2.617 94 2.105 94ZM101.21 94C100.698 94 100.229 93.8293 99.802 93.488C99.4607 93.1467 99.29 92.6773 99.29 92.08V2.992C99.29 2.48 99.4607 2.05333 99.802 1.712C100.229 1.28533 100.698 1.072 101.21 1.072H139.866C143.962 1.072 147.759 1.75466 151.258 3.12C154.671 4.48533 157.743 6.448 160.474 9.008C165.082 13.7867 167.386 19.504 167.386 26.16C167.215 33.4987 164.357 39.2587 158.81 43.44C156.335 45.3173 153.434 46.7253 150.106 47.664C146.863 48.6027 143.365 49.072 139.61 49.072H118.106C120.239 51.0347 123.141 53.6373 126.81 56.88C130.479 60.1227 134.447 63.664 138.714 67.504C143.066 71.2587 147.503 75.184 152.026 79.28C156.549 83.2907 160.815 87.0027 164.826 90.416C165.679 91.2693 165.722 92.1653 164.954 93.104C164.101 94.0427 163.205 94.128 162.266 93.36C162.266 93.36 161.498 92.72 159.962 91.44C158.511 90.0747 156.591 88.368 154.202 86.32C151.898 84.1867 149.21 81.7973 146.138 79.152C143.151 76.5067 140.122 73.8187 137.05 71.088C133.381 67.8453 130.095 64.944 127.194 62.384C124.293 59.824 121.818 57.6053 119.77 55.728C118.49 54.6187 117.381 53.6373 116.442 52.784C115.503 51.9307 114.693 51.2053 114.01 50.608C113.242 49.84 112.73 49.3707 112.474 49.2L111.962 48.688C111.535 48.2613 111.279 47.8773 111.194 47.536C111.194 47.1093 111.279 46.768 111.45 46.512C111.706 45.6587 112.303 45.232 113.242 45.232H139.61C142.341 45.232 145.114 44.8907 147.93 44.208C150.746 43.5253 153.306 42.4587 155.61 41.008C157.914 39.472 159.791 37.5093 161.242 35.12C162.778 32.6453 163.546 29.6587 163.546 26.16C163.546 20.4427 161.626 15.664 157.786 11.824C155.567 9.60533 152.922 7.89866 149.85 6.70399C146.778 5.50933 143.45 4.91199 139.866 4.91199H103.13V92.08C103.13 92.6773 102.917 93.1467 102.49 93.488C102.149 93.8293 101.722 94 101.21 94ZM241.573 93.616C235.6 93.616 229.754 92.4213 224.037 90.032C218.661 87.6427 213.925 84.3147 209.829 80.048C205.648 75.8667 202.448 70.96 200.229 65.328C197.84 59.7813 196.645 53.808 196.645 47.408C196.645 41.008 197.84 34.992 200.229 29.36C202.362 23.8987 205.562 19.0347 209.829 14.768C213.925 10.416 218.661 7.088 224.037 4.784C229.413 2.39466 235.258 1.2 241.573 1.2C247.802 1.2 253.605 2.39466 258.981 4.784C264.272 7.088 269.05 10.416 273.317 14.768C277.413 19.0347 280.613 23.8987 282.917 29.36C285.221 35.1627 286.373 41.1787 286.373 47.408C286.373 53.7227 285.221 59.696 282.917 65.328C280.528 70.96 277.328 75.8667 273.317 80.048C269.05 84.3147 264.272 87.6427 258.981 90.032C253.264 92.4213 247.461 93.616 241.573 93.616ZM241.573 5.03999C235.941 5.03999 230.608 6.14933 225.573 8.368C220.624 10.5867 216.272 13.616 212.517 17.456C208.848 21.296 205.904 25.776 203.685 30.896C201.552 36.016 200.485 41.52 200.485 47.408C200.485 53.2107 201.552 58.7147 203.685 63.92C205.904 69.04 208.848 73.52 212.517 77.36C216.272 81.2 220.624 84.2293 225.573 86.448C230.608 88.6667 235.941 89.776 241.573 89.776C247.205 89.776 252.496 88.6667 257.445 86.448C262.394 84.2293 266.704 81.2 270.373 77.36C274.128 73.52 277.072 69.04 279.205 63.92C281.424 58.7147 282.533 53.2107 282.533 47.408C282.533 41.52 281.424 36.016 279.205 30.896C277.072 25.776 274.128 21.296 270.373 17.456C266.704 13.616 262.394 10.5867 257.445 8.368C252.496 6.14933 247.205 5.03999 241.573 5.03999ZM475.431 94.128C474.663 94.128 474.066 93.7013 473.639 92.848L443.687 16.944C443.516 16.432 443.516 15.92 443.687 15.408C443.943 14.896 444.284 14.5547 444.711 14.384C445.223 14.2133 445.735 14.256 446.247 14.512C446.759 14.6827 447.1 15.024 447.271 15.536L477.223 91.44C477.394 91.952 477.394 92.464 477.223 92.976C477.052 93.488 476.711 93.8293 476.199 94C476.028 94.0853 475.772 94.128 475.431 94.128ZM404.903 94.128C404.562 94.128 404.306 94.0853 404.135 94C403.708 93.8293 403.367 93.488 403.111 92.976C402.94 92.464 402.94 91.952 403.111 91.44L438.439 2.224C438.866 1.02933 439.676 0.645332 440.871 1.072C441.383 1.24266 441.724 1.58399 441.895 2.09599C442.151 2.608 442.194 3.12 442.023 3.632L406.695 92.848C406.439 93.7013 405.842 94.128 404.903 94.128ZM548.275 94.512C541.96 94.512 536.072 93.2747 530.611 90.8C525.064 88.496 520.243 85.168 516.147 80.816C512.051 76.5493 508.808 71.6 506.419 65.968C504.03 60.1653 502.835 54.064 502.835 47.664C502.835 41.1787 504.03 35.12 506.419 29.488C508.808 23.6853 512.051 18.736 516.147 14.64C520.158 10.3733 524.979 7.00266 530.611 4.52799C536.328 2.05333 542.216 0.815994 548.275 0.815994C554.419 0.815994 560.307 2.05333 565.939 4.52799C571.571 7.00266 576.392 10.3733 580.403 14.64C581.256 15.5787 581.256 16.4747 580.403 17.328C579.976 17.7547 579.507 17.968 578.995 17.968C578.568 17.968 578.142 17.7547 577.715 17.328C573.704 13.232 569.182 10.1173 564.147 7.98399C559.198 5.76533 553.907 4.656 548.275 4.656C542.558 4.656 537.182 5.808 532.147 8.112C527.112 10.3307 522.675 13.4027 518.835 17.328C515.08 21.168 512.094 25.7333 509.875 31.024C507.742 36.2293 506.675 41.776 506.675 47.664C506.675 53.6373 507.742 59.2267 509.875 64.432C512.094 69.6373 515.08 74.2027 518.835 78.128C522.675 81.968 527.112 85.04 532.147 87.344C537.182 89.5627 542.558 90.672 548.275 90.672C553.907 90.672 559.24 89.6053 564.275 87.472C569.395 85.2533 573.918 82.096 577.843 78C578.696 77.1467 579.592 77.104 580.531 77.872C581.384 78.7253 581.427 79.6213 580.659 80.56C576.563 84.912 571.699 88.3253 566.067 90.8C560.35 93.2747 554.419 94.512 548.275 94.512ZM647.081 93.616C646.484 93.616 646.014 93.4453 645.673 93.104C645.332 92.6773 645.161 92.208 645.161 91.696V2.48C645.161 1.968 645.332 1.54133 645.673 1.2C646.014 0.773331 646.484 0.559998 647.081 0.559998C647.593 0.559998 648.02 0.773331 648.361 1.2C648.788 1.54133 649.001 1.968 649.001 2.48V91.696C649.001 92.208 648.788 92.6773 648.361 93.104C648.02 93.4453 647.593 93.616 647.081 93.616ZM682.409 5.03999H611.625C611.113 5.03999 610.644 4.86933 610.217 4.52799C609.876 4.10133 609.705 3.63199 609.705 3.12C609.705 2.608 609.876 2.18133 610.217 1.84C610.644 1.41333 611.113 1.2 611.625 1.2H682.409C683.006 1.2 683.476 1.41333 683.817 1.84C684.158 2.18133 684.329 2.608 684.329 3.12C684.329 3.63199 684.158 4.10133 683.817 4.52799C683.476 4.86933 683.006 5.03999 682.409 5.03999Z" fill="white"/>
<path d="M0.696998 93.488L-0.0101092 94.1951L0.029054 94.2343L0.0723025 94.2689L0.696998 93.488ZM0.696998 1.712L-0.0101088 1.00489L-0.0101099 1.00489L0.696998 1.712ZM3.385 1.712L2.60413 2.33669L2.67354 2.42346L2.7603 2.49287L3.385 1.712ZM3.385 93.488L2.7603 92.7071L2.71705 92.7417L2.67789 92.7809L3.385 93.488ZM12.089 48.688L11.3081 49.3127L11.3775 49.3995L11.4643 49.4689L12.089 48.688ZM12.089 46L11.3819 45.2929H11.3819L12.089 46ZM49.209 43.824L49.5507 44.7638L49.5585 44.761L49.5661 44.758L49.209 43.824ZM56.633 39.344L55.9724 38.5933L55.9648 38.6L55.9573 38.6068L56.633 39.344ZM61.497 32.688L60.5856 32.2764L60.5825 32.2834L60.5794 32.2904L61.497 32.688ZM63.289 24.112L62.2895 24.0798L62.289 24.0959V24.112H63.289ZM58.425 11.312L57.7179 12.0191L57.727 12.0282L57.7363 12.037L58.425 11.312ZM11.705 4.39999L10.9241 5.02469L10.9935 5.11145L11.0803 5.18086L11.705 4.39999ZM11.705 1.712L10.9979 1.00489L10.9979 1.00489L11.705 1.712ZM61.113 8.49599L61.8344 7.80346L61.8273 7.7961L61.8201 7.78889L61.113 8.49599ZM67.129 24.112L66.129 24.0981V24.112H67.129ZM65.081 34.224L65.9989 34.6209L65.081 34.224ZM59.065 42.416L58.4082 41.6619L58.4028 41.6666L58.3975 41.6714L59.065 42.416ZM50.361 47.536L50.6847 48.4822L50.6918 48.4797L50.6989 48.4772L50.361 47.536ZM0.696998 93.488L-0.0101092 94.1951L0.029054 94.2343L0.0723025 94.2689L0.696998 93.488ZM0.696998 1.712L-0.0101088 1.00489L-0.0101099 1.00489L0.696998 1.712ZM3.385 1.712L2.60413 2.33669L2.67354 2.42346L2.7603 2.49287L3.385 1.712ZM3.385 93.488L2.7603 92.7071L2.71705 92.7417L2.67789 92.7809L3.385 93.488ZM2.105 93C1.83592 93 1.58383 92.9168 1.32169 92.7071L0.0723025 94.2689C0.663499 94.7418 1.35008 95 2.105 95V93ZM1.4041 92.7809C1.29274 92.6695 1.185 92.4789 1.185 92.08H-0.815002C-0.815002 92.8758 -0.581416 93.6238 -0.0101092 94.1951L1.4041 92.7809ZM1.185 92.08V2.992H-0.815002V92.08H1.185ZM1.185 2.992C1.185 2.72736 1.26257 2.56064 1.40411 2.4191L-0.0101099 1.00489C-0.551237 1.54602 -0.815002 2.23264 -0.815002 2.992H1.185ZM1.4041 2.41911C1.67927 2.14394 1.90516 2.072 2.105 2.072V0.0719986C1.28083 0.0719986 0.56806 0.426723 -0.0101088 1.00489L1.4041 2.41911ZM2.105 2.072C2.29048 2.072 2.4379 2.12891 2.60413 2.33669L4.16587 1.0873C3.64943 0.441757 2.94351 0.0719986 2.105 0.0719986V2.072ZM2.7603 2.49287C2.96809 2.6591 3.025 2.80651 3.025 2.992H5.025C5.025 2.15348 4.65524 1.44757 4.00969 0.93113L2.7603 2.49287ZM3.025 2.992V92.08H5.025V2.992H3.025ZM3.025 92.08C3.025 92.4059 2.92559 92.5749 2.7603 92.7071L4.00969 94.2689C4.69774 93.7184 5.025 92.9488 5.025 92.08H3.025ZM2.67789 92.7809C2.53635 92.9224 2.36964 93 2.105 93V95C2.86436 95 3.55098 94.7362 4.0921 94.1951L2.67789 92.7809ZM39.865 48.2H13.497V50.2H39.865V48.2ZM13.497 48.2C13.2279 48.2 12.9758 48.1168 12.7137 47.9071L11.4643 49.4689C12.0555 49.9418 12.7421 50.2 13.497 50.2V48.2ZM12.8699 48.0633C12.6602 47.8012 12.577 47.5491 12.577 47.28H10.577C10.577 48.0349 10.8352 48.7215 11.3081 49.3127L12.8699 48.0633ZM12.577 47.28C12.577 47.0154 12.6546 46.8486 12.7961 46.7071L11.3819 45.2929C10.8408 45.834 10.577 46.5206 10.577 47.28H12.577ZM12.7961 46.7071C13.0713 46.4319 13.2972 46.36 13.497 46.36V44.36C12.6728 44.36 11.9601 44.7147 11.3819 45.2929L12.7961 46.7071ZM13.497 46.36H39.865V44.36H13.497V46.36ZM39.865 46.36C43.3789 46.36 46.6111 45.8328 49.5507 44.7638L48.8673 42.8842C46.1749 43.8632 43.1778 44.36 39.865 44.36V46.36ZM49.5661 44.758C52.5713 43.609 55.1575 42.0531 57.3087 40.0812L55.9573 38.6068C54.0125 40.3896 51.6494 41.8203 48.8519 42.8899L49.5661 44.758ZM57.2936 40.0947C59.5355 38.1219 61.2455 35.7834 62.4146 33.0856L60.5794 32.2904C59.5298 34.7126 57.9972 36.8114 55.9724 38.5933L57.2936 40.0947ZM62.4084 33.0996C63.6648 30.3174 64.289 27.3175 64.289 24.112H62.289C62.289 27.0505 61.7185 29.7679 60.5856 32.2764L62.4084 33.0996ZM64.2885 24.1442C64.4671 18.6078 62.7609 14.0518 59.1137 10.587L57.7363 12.037C60.9157 15.0575 62.4523 19.0348 62.2895 24.0798L64.2885 24.1442ZM59.1321 10.6049C54.6244 6.09713 48.2354 3.91199 40.121 3.91199V5.91199C47.8786 5.91199 53.6923 7.99352 57.7179 12.0191L59.1321 10.6049ZM40.121 3.91199H13.113V5.91199H40.121V3.91199ZM13.113 3.91199C12.8439 3.91199 12.5918 3.82884 12.3297 3.61913L11.0803 5.18086C11.6715 5.65382 12.3581 5.91199 13.113 5.91199V3.91199ZM12.4859 3.7753C12.2762 3.51316 12.193 3.26108 12.193 2.992H10.193C10.193 3.74691 10.4512 4.43349 10.9241 5.02469L12.4859 3.7753ZM12.193 2.992C12.193 2.72736 12.2706 2.56064 12.4121 2.4191L10.9979 1.00489C10.4568 1.54602 10.193 2.23264 10.193 2.992H12.193ZM12.4121 2.41911C12.6873 2.14394 12.9132 2.072 13.113 2.072V0.0719986C12.2888 0.0719986 11.5761 0.426723 10.9979 1.00489L12.4121 2.41911ZM13.113 2.072H40.121V0.0719986H13.113V2.072ZM40.121 2.072C44.4624 2.072 48.3569 2.6981 51.8167 3.93374L52.4893 2.05025C48.7811 0.725896 44.6543 0.0719986 40.121 0.0719986V2.072ZM51.8167 3.93374C55.2789 5.17026 58.1338 6.93098 60.4059 9.2031L61.8201 7.78889C59.3136 5.28234 56.1951 3.37373 52.4893 2.05025L51.8167 3.93374ZM60.3916 9.18853C64.2978 13.2574 66.2109 18.2057 66.1291 24.0981L68.1289 24.1259C68.2177 17.7303 66.1202 12.2679 61.8344 7.80346L60.3916 9.18853ZM66.129 24.112C66.129 27.5653 65.472 30.8003 64.1631 33.8271L65.9989 34.6209C67.4206 31.333 68.129 27.8267 68.129 24.112H66.129ZM64.1631 33.8271C62.8583 36.8446 60.9433 39.454 58.4082 41.6619L59.7218 43.1701C62.4774 40.77 64.5731 37.9181 65.9989 34.6209L64.1631 33.8271ZM58.3975 41.6714C56.025 43.7985 53.2374 45.441 50.0231 46.5948L50.6989 48.4772C54.1406 47.2417 57.1557 45.4709 59.7325 43.1606L58.3975 41.6714ZM50.0373 46.5898C46.9083 47.6603 43.52 48.2 39.865 48.2V50.2C43.7193 50.2 47.3283 49.6304 50.6847 48.4822L50.0373 46.5898ZM2.105 93C1.83592 93 1.58383 92.9168 1.32169 92.7071L0.0723025 94.2689C0.663499 94.7418 1.35008 95 2.105 95V93ZM1.4041 92.7809C1.29274 92.6695 1.185 92.4789 1.185 92.08H-0.815002C-0.815002 92.8758 -0.581416 93.6238 -0.0101092 94.1951L1.4041 92.7809ZM1.185 92.08V2.992H-0.815002V92.08H1.185ZM1.185 2.992C1.185 2.72736 1.26257 2.56064 1.40411 2.4191L-0.0101099 1.00489C-0.551237 1.54602 -0.815002 2.23264 -0.815002 2.992H1.185ZM1.4041 2.41911C1.67927 2.14394 1.90516 2.072 2.105 2.072V0.0719986C1.28083 0.0719986 0.56806 0.426723 -0.0101088 1.00489L1.4041 2.41911ZM2.105 2.072C2.29048 2.072 2.4379 2.12891 2.60413 2.33669L4.16587 1.0873C3.64943 0.441757 2.94351 0.0719986 2.105 0.0719986V2.072ZM2.7603 2.49287C2.96809 2.6591 3.025 2.80651 3.025 2.992H5.025C5.025 2.15348 4.65524 1.44757 4.00969 0.93113L2.7603 2.49287ZM3.025 2.992V92.08H5.025V2.992H3.025ZM3.025 92.08C3.025 92.4059 2.92559 92.5749 2.7603 92.7071L4.00969 94.2689C4.69774 93.7184 5.025 92.9488 5.025 92.08H3.025ZM2.67789 92.7809C2.53635 92.9224 2.36964 93 2.105 93V95C2.86436 95 3.55098 94.7362 4.0921 94.1951L2.67789 92.7809ZM99.802 93.488L99.0949 94.1951L99.134 94.2343L99.1773 94.2689L99.802 93.488ZM99.802 1.712L99.0949 1.00489V1.00489L99.802 1.712ZM151.258 3.12L151.629 2.19149L151.622 2.18842L151.258 3.12ZM160.474 9.008L161.194 8.31386L161.176 8.29571L161.158 8.27846L160.474 9.008ZM167.386 26.16L168.386 26.1832L168.386 26.1716V26.16H167.386ZM158.81 43.44L158.208 42.6415L158.206 42.6433L158.81 43.44ZM150.106 47.664L149.835 46.7015L149.828 46.7034L150.106 47.664ZM118.106 49.072V48.072H115.542L117.429 49.8079L118.106 49.072ZM126.81 56.88L127.472 56.1307L126.81 56.88ZM138.714 67.504L138.045 68.2473L138.053 68.2543L138.061 68.2612L138.714 67.504ZM152.026 79.28L151.355 80.0212L151.363 80.0282L152.026 79.28ZM164.826 90.416L165.533 89.7089L165.505 89.6805L165.474 89.6545L164.826 90.416ZM164.954 93.104L165.694 93.7767L165.711 93.7574L165.728 93.7372L164.954 93.104ZM162.266 93.36L161.626 94.1283L161.633 94.134L162.266 93.36ZM159.962 91.44L159.277 92.1682L159.299 92.1889L159.322 92.2082L159.962 91.44ZM154.202 86.32L153.523 87.0538L153.537 87.0668L153.551 87.0793L154.202 86.32ZM146.138 79.152L145.475 79.9007L145.485 79.9098L146.138 79.152ZM137.05 71.088L137.714 70.3406L137.712 70.3387L137.05 71.088ZM119.77 55.728L120.446 54.9908L120.435 54.9814L120.425 54.9723L119.77 55.728ZM116.442 52.784L117.115 52.0441L116.442 52.784ZM114.01 50.608L113.303 51.3151L113.326 51.3386L113.351 51.3606L114.01 50.608ZM112.474 49.2L111.767 49.9071L111.837 49.9771L111.919 50.032L112.474 49.2ZM111.962 48.688L111.255 49.3951L111.255 49.3951L111.962 48.688ZM111.194 47.536H110.194V47.6591L110.224 47.7785L111.194 47.536ZM111.45 46.512L112.282 47.0667L112.365 46.9424L112.408 46.7993L111.45 46.512ZM147.93 44.208L147.694 43.2361L147.93 44.208ZM155.61 41.008L156.143 41.8542L156.154 41.8473L156.165 41.84L155.61 41.008ZM161.242 35.12L160.392 34.5926L160.387 34.601L161.242 35.12ZM157.786 11.824L157.079 12.5311L157.786 11.824ZM149.85 6.70399L149.488 7.636L149.85 6.70399ZM103.13 4.91199V3.91199H102.13V4.91199H103.13ZM102.49 93.488L101.865 92.7071L101.822 92.7417L101.783 92.7809L102.49 93.488ZM101.21 93C100.941 93 100.689 92.9168 100.427 92.7071L99.1773 94.2689C99.7685 94.7418 100.455 95 101.21 95V93ZM100.509 92.7809C100.398 92.6695 100.29 92.4789 100.29 92.08H98.29C98.29 92.8758 98.5236 93.6238 99.0949 94.1951L100.509 92.7809ZM100.29 92.08V2.992H98.29V92.08H100.29ZM100.29 2.992C100.29 2.72736 100.368 2.56064 100.509 2.4191L99.0949 1.00489C98.5538 1.54602 98.29 2.23264 98.29 2.992H100.29ZM100.509 2.41911C100.784 2.14394 101.01 2.072 101.21 2.072V0.0719986C100.386 0.0719986 99.6731 0.426723 99.0949 1.00489L100.509 2.41911ZM101.21 2.072H139.866V0.0719986H101.21V2.072ZM139.866 2.072C143.849 2.072 147.522 2.7354 150.894 4.05157L151.622 2.18842C147.997 0.773932 144.075 0.0719986 139.866 0.0719986V2.072ZM150.887 4.04847C154.182 5.36669 157.149 7.26116 159.79 9.73753L161.158 8.27846C158.338 5.63484 155.161 3.60397 151.629 2.19152L150.887 4.04847ZM159.754 9.70213C164.182 14.2939 166.386 19.7622 166.386 26.16H168.386C168.386 19.2458 165.982 13.2795 161.194 8.31386L159.754 9.70213ZM166.386 26.1367C166.222 33.1898 163.495 38.6559 158.208 42.6415L159.412 44.2385C165.218 39.8614 168.208 33.8075 168.386 26.1832L166.386 26.1367ZM158.206 42.6433C155.841 44.437 153.056 45.793 149.835 46.7015L150.377 48.6264C153.812 47.6577 156.829 46.1977 159.414 44.2367L158.206 42.6433ZM149.828 46.7034C146.685 47.6132 143.281 48.072 139.61 48.072V50.072C143.448 50.072 147.042 49.5921 150.384 48.6246L149.828 46.7034ZM139.61 48.072H118.106V50.072H139.61V48.072ZM117.429 49.8079C119.569 51.7771 122.476 54.3848 126.148 57.6293L127.472 56.1307C123.805 52.8899 120.909 50.2922 118.783 48.3361L117.429 49.8079ZM126.148 57.6293C129.815 60.8697 133.78 64.409 138.045 68.2473L139.383 66.7607C135.114 62.919 131.144 59.3756 127.472 56.1307L126.148 57.6293ZM138.061 68.2612C142.406 72.0103 146.838 75.9303 151.355 80.0212L152.697 78.5388C148.169 74.4377 143.726 70.5071 139.367 66.7468L138.061 68.2612ZM151.363 80.0282C155.89 84.0427 160.161 87.7592 164.178 91.1775L165.474 89.6545C161.469 86.2461 157.208 82.5386 152.689 78.5318L151.363 80.0282ZM164.119 91.1231C164.431 91.4355 164.493 91.6512 164.499 91.7756C164.505 91.9009 164.463 92.1246 164.18 92.4708L165.728 93.7372C166.213 93.1448 166.534 92.4511 166.497 91.6804C166.46 90.9088 166.074 90.2498 165.533 89.7089L164.119 91.1231ZM164.214 92.4313C163.886 92.7918 163.662 92.8656 163.547 92.8765C163.442 92.8865 163.237 92.8627 162.899 92.586L161.633 94.134C162.233 94.6253 162.946 94.9428 163.737 94.8675C164.518 94.7931 165.168 94.3549 165.694 93.7767L164.214 92.4313ZM162.266 93.36C162.906 92.5918 162.906 92.5918 162.906 92.5918C162.906 92.5918 162.906 92.5918 162.906 92.5918C162.906 92.5917 162.906 92.5917 162.906 92.5917C162.906 92.5917 162.906 92.5917 162.906 92.5917C162.906 92.5916 162.906 92.5916 162.906 92.5915C162.906 92.5915 162.906 92.5915 162.906 92.5914C162.906 92.5914 162.906 92.5913 162.906 92.5913C162.905 92.5911 162.905 92.591 162.905 92.5907C162.905 92.5906 162.904 92.5901 162.904 92.5899C162.904 92.5898 162.904 92.5897 162.904 92.5897C162.904 92.5896 162.903 92.5895 162.903 92.5894C162.903 92.5893 162.903 92.5892 162.903 92.5891C162.903 92.589 162.903 92.5889 162.903 92.5889C162.903 92.5888 162.902 92.5887 162.902 92.5885C162.902 92.5884 162.902 92.5883 162.902 92.5882C162.902 92.5881 162.902 92.588 162.902 92.5879C162.901 92.5878 162.901 92.5877 162.901 92.5876C162.901 92.5875 162.898 92.5847 162.897 92.5843C162.888 92.577 162.896 92.5834 162.886 92.5749C162.885 92.5744 162.88 92.5696 162.879 92.5688C162.877 92.5678 162.876 92.5665 162.875 92.5654C162.871 92.5622 162.874 92.565 162.87 92.5618C162.868 92.5599 162.854 92.548 162.85 92.5449C162.85 92.5446 162.839 92.5357 162.838 92.5351C162.837 92.534 162.827 92.5256 162.825 92.5243C162.766 92.4753 162.827 92.5258 162.762 92.4718C162.741 92.4538 162.747 92.4592 162.724 92.4399C162.69 92.412 162.737 92.4508 162.703 92.4226C162.698 92.4181 162.687 92.4091 162.681 92.4043C162.672 92.3968 162.597 92.3343 162.582 92.3218C162.529 92.2778 162.524 92.2732 162.465 92.2243C162.394 92.1648 162.473 92.2306 162.4 92.1699C162.37 92.145 162.396 92.1665 162.366 92.1413C162.358 92.135 162.356 92.133 162.348 92.1267C162.343 92.1227 162.344 92.1232 162.339 92.1192C162.338 92.118 162.336 92.1168 162.335 92.1155C162.333 92.1143 162.332 92.113 162.33 92.1118C162.32 92.1033 162.331 92.1128 162.321 92.1042C162.32 92.103 162.318 92.1017 162.317 92.1005C162.315 92.0992 162.314 92.0979 162.312 92.0967C162.311 92.0954 162.309 92.0941 162.307 92.0928C162.306 92.0916 162.304 92.0903 162.303 92.089C162.298 92.0847 162.299 92.0857 162.294 92.0813C162.239 92.0359 162.311 92.0956 162.256 92.0499C162.22 92.0202 162.214 92.0153 162.177 91.9843C162.168 91.9769 162.166 91.9747 162.157 91.9673C162.155 91.9659 162.148 91.9601 162.146 91.9587C162.145 91.9573 162.143 91.9558 162.141 91.9544C162.14 91.9529 162.138 91.9515 162.136 91.9501C162.13 91.9449 162.1 91.9203 162.094 91.9149C162.083 91.9054 162.062 91.8886 162.051 91.8788C162.043 91.8721 162.048 91.8764 162.04 91.8696C162.038 91.8681 162.036 91.8666 162.034 91.865C162.032 91.8635 162.03 91.862 162.029 91.8604C162.025 91.8577 162.01 91.8446 162.006 91.8418C161.981 91.8206 161.849 91.7105 161.817 91.6843C161.815 91.6826 161.813 91.6808 161.811 91.6791C161.809 91.6774 161.807 91.6757 161.805 91.6739C161.793 91.6642 161.804 91.6733 161.792 91.6635C161.791 91.6622 161.781 91.6544 161.78 91.6531C161.763 91.6391 161.784 91.6566 161.767 91.6426C161.74 91.6199 161.769 91.6441 161.742 91.6214C161.737 91.6178 161.733 91.6142 161.729 91.6107C161.727 91.6089 161.725 91.6071 161.722 91.6053C161.72 91.6035 161.718 91.6017 161.716 91.5999C161.714 91.5986 161.705 91.5905 161.703 91.5891C161.696 91.583 161.697 91.5844 161.69 91.5782C161.671 91.5621 161.683 91.5725 161.664 91.5563C161.661 91.5545 161.659 91.5526 161.657 91.5508C161.655 91.549 161.653 91.5471 161.65 91.5453C161.648 91.5434 161.646 91.5416 161.644 91.5397C161.641 91.5379 161.639 91.536 161.637 91.5342C161.593 91.4978 161.654 91.5482 161.61 91.5118C161.568 91.4769 161.598 91.5015 161.556 91.4663C161.538 91.4518 161.545 91.4578 161.528 91.4432C161.519 91.4355 161.523 91.4394 161.514 91.4316C161.513 91.4304 161.501 91.4211 161.5 91.4199C161.497 91.4176 161.475 91.3987 161.472 91.3963C161.436 91.3664 161.479 91.4026 161.443 91.3726C161.424 91.3566 161.405 91.3405 161.385 91.3243C161.381 91.3207 161.331 91.2789 161.326 91.2751C161.323 91.2726 161.299 91.2526 161.296 91.2501C161.295 91.2489 161.283 91.2388 161.281 91.2375C161.271 91.2291 161.276 91.2333 161.266 91.2249C161.183 91.1562 161.226 91.1917 161.142 91.1218C161.058 91.0517 160.971 90.9794 160.881 90.9043C160.872 90.8968 160.856 90.8836 160.847 90.876C160.845 90.8739 160.816 90.8497 160.813 90.8476C160.808 90.8434 160.749 90.7944 160.744 90.7899C160.738 90.7846 160.61 90.6783 160.602 90.6718L159.322 92.2082C159.473 92.3346 159.734 92.5519 159.862 92.6582C159.863 92.6595 159.892 92.6831 159.893 92.6844C159.896 92.6865 159.898 92.6887 159.901 92.6908C159.904 92.693 159.906 92.6952 159.909 92.6973C159.911 92.6995 159.914 92.7016 159.917 92.7038C159.919 92.706 159.922 92.7081 159.924 92.7103C159.933 92.7172 159.947 92.729 159.955 92.7359C159.977 92.7538 159.964 92.7435 159.986 92.7613C160.018 92.7886 160.074 92.8347 160.105 92.8607C160.132 92.8837 160.194 92.9347 160.22 92.9563C160.237 92.9712 160.314 93.0346 160.33 93.0482C160.406 93.1119 160.361 93.0739 160.436 93.1363C160.459 93.1556 160.515 93.2027 160.537 93.2207C160.548 93.2296 160.575 93.2529 160.586 93.2615C160.591 93.2656 160.605 93.2775 160.61 93.2815C160.612 93.2836 160.619 93.2895 160.622 93.2915C160.624 93.2931 160.626 93.2948 160.628 93.2964C160.63 93.2981 160.632 93.2997 160.634 93.3013C160.636 93.303 160.637 93.3046 160.639 93.3063C160.641 93.3079 160.643 93.3095 160.645 93.3112C160.648 93.3132 160.655 93.3189 160.657 93.3209C160.662 93.3247 160.676 93.3365 160.68 93.3403C160.689 93.3478 160.717 93.3709 160.726 93.3782C160.788 93.4299 161.012 93.6165 161.05 93.6482C161.202 93.7748 161.426 93.9616 161.482 94.0082C161.522 94.0415 161.574 94.0849 161.59 94.0982C161.59 94.0983 161.592 94.1 161.592 94.1001C161.593 94.1012 161.593 94.1008 161.594 94.1019C161.595 94.1021 161.595 94.1024 161.595 94.1027C161.596 94.103 161.596 94.1033 161.596 94.1036C161.597 94.1039 161.597 94.1041 161.597 94.1044C161.598 94.1047 161.598 94.105 161.598 94.1053C161.599 94.1056 161.602 94.1082 161.602 94.1084C161.602 94.1087 161.605 94.1111 161.606 94.1113C161.606 94.1115 161.607 94.1126 161.607 94.1127C161.608 94.1131 161.608 94.1137 161.609 94.114C161.609 94.1145 161.611 94.1161 161.612 94.1165C161.613 94.1173 161.616 94.1203 161.617 94.1207C161.617 94.1209 161.617 94.121 161.617 94.1212C161.618 94.1213 161.618 94.1215 161.618 94.1216C161.619 94.1226 161.618 94.1215 161.619 94.1225C161.619 94.1226 161.619 94.1227 161.619 94.1229C161.62 94.123 161.62 94.1231 161.62 94.1233C161.62 94.1234 161.62 94.1235 161.62 94.1236C161.62 94.1238 161.621 94.1239 161.621 94.124C161.624 94.1266 161.621 94.124 161.624 94.1263C161.624 94.1264 161.624 94.1268 161.624 94.1268C161.624 94.1269 161.624 94.1269 161.624 94.127C161.624 94.127 161.624 94.1271 161.625 94.1272C161.625 94.1272 161.625 94.1273 161.625 94.1273C161.625 94.1274 161.625 94.1274 161.625 94.1275C161.625 94.1276 161.625 94.1277 161.625 94.1278C161.625 94.1279 161.626 94.1281 161.626 94.1281C161.626 94.1281 161.626 94.1282 161.626 94.1282C161.626 94.1282 161.626 94.1282 161.626 94.1282C161.626 94.1282 161.626 94.1282 162.266 93.36ZM160.647 90.7118C159.181 89.3316 157.248 87.6138 154.853 85.5607L153.551 87.0793C155.935 89.1222 157.842 90.8177 159.277 92.1682L160.647 90.7118ZM154.881 85.5862C152.566 83.4428 149.869 81.0453 146.791 78.3942L145.485 79.9098C148.551 82.5494 151.23 84.9305 153.523 87.0538L154.881 85.5862ZM146.801 78.4034C143.815 75.7585 140.786 73.0709 137.714 70.3406L136.386 71.8354C139.458 74.5665 142.488 77.2549 145.475 79.9006L146.801 78.4034ZM137.712 70.3387C134.043 67.0959 130.757 64.1944 127.856 61.6342L126.532 63.1338C129.433 65.6936 132.719 68.5948 136.388 71.8373L137.712 70.3387ZM127.856 61.6342C124.957 59.0769 122.488 56.8626 120.446 54.9908L119.094 56.4651C121.148 58.348 123.628 60.5711 126.532 63.1338L127.856 61.6342ZM120.425 54.9723C119.149 53.8666 118.046 52.8907 117.115 52.0441L115.769 53.5239C116.715 54.384 117.831 55.3708 119.115 56.4837L120.425 54.9723ZM117.115 52.0441C116.173 51.188 115.357 50.4582 114.668 49.8554L113.351 51.3606C114.028 51.9525 114.834 52.6733 115.769 53.5239L117.115 52.0441ZM114.717 49.9009C113.969 49.1532 113.384 48.6047 113.029 48.3679L111.919 50.032C112.076 50.1366 112.515 50.5268 113.303 51.3151L114.717 49.9009ZM113.181 48.4929L112.669 47.9809L111.255 49.3951L111.767 49.9071L113.181 48.4929ZM112.669 47.9809C112.29 47.6019 112.184 47.3742 112.164 47.2935L110.224 47.7785C110.374 48.3805 110.781 48.9208 111.255 49.3951L112.669 47.9809ZM112.194 47.536C112.194 47.233 112.256 47.1062 112.282 47.0667L110.618 45.9573C110.303 46.4298 110.194 46.9857 110.194 47.536H112.194ZM112.408 46.7993C112.486 46.5384 112.589 46.4245 112.671 46.3657C112.758 46.3035 112.923 46.232 113.242 46.232V44.232C112.622 44.232 112.019 44.3739 111.509 44.7383C110.994 45.1062 110.67 45.6323 110.492 46.2246L112.408 46.7993ZM113.242 46.232H139.61V44.232H113.242V46.232ZM139.61 46.232C142.425 46.232 145.277 45.8801 148.166 45.1798L147.694 43.2361C144.951 43.9013 142.257 44.232 139.61 44.232V46.232ZM148.166 45.1798C151.08 44.4733 153.741 43.3662 156.143 41.8542L155.077 40.1618C152.871 41.5511 150.412 42.5773 147.694 43.2361L148.166 45.1798ZM156.165 41.84C158.592 40.2221 160.571 38.1521 162.097 35.639L160.387 34.601C159.012 36.8665 157.236 38.7219 155.055 40.1759L156.165 41.84ZM162.092 35.6474C163.744 32.9851 164.546 29.8073 164.546 26.16H162.546C162.546 29.5101 161.812 32.3056 160.392 34.5926L162.092 35.6474ZM164.546 26.16C164.546 20.193 162.531 15.1552 158.493 11.1169L157.079 12.5311C160.721 16.1728 162.546 20.6923 162.546 26.16H164.546ZM158.493 11.1169C156.171 8.79524 153.407 7.01433 150.212 5.77199L149.488 7.636C152.437 8.783 154.963 10.4154 157.079 12.5311L158.493 11.1169ZM150.212 5.77199C147.015 4.52861 143.563 3.91199 139.866 3.91199V5.91199C143.337 5.91199 146.541 6.49005 149.488 7.636L150.212 5.77199ZM139.866 3.91199H103.13V5.91199H139.866V3.91199ZM102.13 4.91199V92.08H104.13V4.91199H102.13ZM102.13 92.08C102.13 92.4059 102.031 92.5749 101.865 92.7071L103.115 94.2689C103.803 93.7184 104.13 92.9488 104.13 92.08H102.13ZM101.783 92.7809C101.641 92.9224 101.475 93 101.21 93V95C101.969 95 102.656 94.7362 103.197 94.1951L101.783 92.7809ZM224.037 90.032L223.631 90.9458L223.641 90.9504L223.651 90.9547L224.037 90.032ZM209.829 80.048L210.55 79.3555L210.543 79.3481L210.536 79.3409L209.829 80.048ZM200.229 65.328L201.159 64.9615L201.154 64.9468L201.147 64.9324L200.229 65.328ZM200.229 29.36L201.15 29.7506L201.155 29.7373L201.16 29.7239L200.229 29.36ZM209.829 14.768L210.536 15.4751L210.547 15.4644L210.557 15.4534L209.829 14.768ZM224.037 4.784L224.431 5.70322L224.443 5.69781L224.037 4.784ZM258.981 4.784L258.575 5.69783L258.582 5.70083L258.981 4.784ZM273.317 14.768L274.038 14.0754L274.031 14.0679L273.317 14.768ZM282.917 29.36L283.846 28.991L283.842 28.9811L283.838 28.9713L282.917 29.36ZM282.917 65.328L283.838 65.7186L283.843 65.7066L282.917 65.328ZM273.317 80.048L274.024 80.7551L274.031 80.7477L274.039 80.7402L273.317 80.048ZM258.981 90.032L259.367 90.9547L259.38 90.9492L259.393 90.9434L258.981 90.032ZM225.573 8.368L225.17 7.45289L225.164 7.45549L225.573 8.368ZM212.517 17.456L211.802 16.7568L211.794 16.7651L212.517 17.456ZM203.685 30.896L202.767 30.4983L202.762 30.5114L203.685 30.896ZM203.685 63.92L202.76 64.2992L202.763 64.3084L202.767 64.3176L203.685 63.92ZM212.517 77.36L211.794 78.0509L211.802 78.0591L212.517 77.36ZM225.573 86.448L225.164 87.3605L225.17 87.3631L225.573 86.448ZM257.445 86.448L257.036 85.5355L257.445 86.448ZM270.373 77.36L269.658 76.6608L269.65 76.6691L270.373 77.36ZM279.205 63.92L278.285 63.5279L278.282 63.5354L279.205 63.92ZM279.205 30.896L278.282 31.2807L278.287 31.2936L279.205 30.896ZM270.373 17.456L269.65 18.1469L269.658 18.1551L270.373 17.456ZM257.445 8.368L257.036 9.28051L257.445 8.368ZM241.573 92.616C235.737 92.616 230.022 91.4496 224.423 89.1093L223.651 90.9547C229.486 93.3931 235.462 94.616 241.573 94.616V92.616ZM224.443 89.1182C219.186 86.7818 214.557 83.5292 210.55 79.3555L209.108 80.7405C213.293 85.1002 218.136 88.5036 223.631 90.9458L224.443 89.1182ZM210.536 79.3409C206.454 75.2589 203.329 70.4689 201.159 64.9615L199.299 65.6945C201.566 71.4511 204.841 76.4744 209.122 80.7551L210.536 79.3409ZM201.147 64.9324C198.815 59.518 197.645 53.6802 197.645 47.408H195.645C195.645 53.9358 196.864 60.0446 199.311 65.7236L201.147 64.9324ZM197.645 47.408C197.645 41.1359 198.815 35.2533 201.15 29.7506L199.308 28.9694C196.864 34.7307 195.645 40.8801 195.645 47.408H197.645ZM201.16 29.7239C203.242 24.395 206.364 19.647 210.536 15.4751L209.122 14.0609C204.76 18.4223 201.483 23.4023 199.298 28.9962L201.16 29.7239ZM210.557 15.4534C214.561 11.1992 219.184 7.95181 224.431 5.70314L223.643 3.86485C218.138 6.22418 213.289 9.63281 209.101 14.0826L210.557 15.4534ZM224.443 5.69781C229.682 3.36938 235.388 2.2 241.573 2.2V0.199997C235.129 0.199997 229.144 1.41994 223.631 3.87018L224.443 5.69781ZM241.573 2.2C247.671 2.2 253.334 3.36861 258.575 5.69781L259.387 3.87018C253.876 1.42072 247.934 0.199997 241.573 0.199997V2.2ZM258.582 5.70083C263.748 7.95065 268.421 11.2027 272.603 15.4681L274.031 14.0679C269.68 9.62933 264.795 6.22535 259.38 3.86716L258.582 5.70083ZM272.596 15.4605C276.607 19.6388 279.739 24.3998 281.996 29.7487L283.838 28.9713C281.487 23.3976 278.219 18.4305 274.038 14.0755L272.596 15.4605ZM281.988 29.729C284.245 35.4145 285.373 41.3053 285.373 47.408H287.373C287.373 41.052 286.197 34.9108 283.846 28.991L281.988 29.729ZM285.373 47.408C285.373 53.5978 284.244 59.4421 281.991 64.9494L283.843 65.7066C286.198 59.9499 287.373 53.8475 287.373 47.408H285.373ZM281.996 64.9374C279.652 70.464 276.517 75.2669 272.595 79.3558L274.039 80.7402C278.138 76.4664 281.404 71.456 283.838 65.7186L281.996 64.9374ZM272.61 79.3409C268.425 83.5256 263.746 86.7829 258.569 89.1206L259.393 90.9434C264.798 88.5024 269.675 85.1037 274.024 80.7551L272.61 79.3409ZM258.595 89.1093C252.994 91.4503 247.322 92.616 241.573 92.616V94.616C247.6 94.616 253.534 93.3923 259.367 90.9547L258.595 89.1093ZM241.573 4.03999C235.806 4.03999 230.335 5.1769 225.17 7.45291L225.976 9.28308C230.881 7.12175 236.076 6.03999 241.573 6.03999V4.03999ZM225.164 7.45549C220.101 9.72495 215.645 12.8263 211.802 16.7569L213.232 18.1551C216.898 14.4057 221.146 11.4484 225.982 9.28051L225.164 7.45549ZM211.794 16.7651C208.039 20.6949 205.031 25.2755 202.767 30.4984L204.603 31.2936C206.777 26.2765 209.656 21.8971 213.24 18.1469L211.794 16.7651ZM202.762 30.5114C200.575 35.7606 199.485 41.3962 199.485 47.408H201.485C201.485 41.6438 202.529 36.2714 204.608 31.2806L202.762 30.5114ZM199.485 47.408C199.485 53.3365 200.575 58.9697 202.76 64.2992L204.61 63.5408C202.528 58.4596 201.485 53.0848 201.485 47.408H199.485ZM202.767 64.3176C205.031 69.5405 208.039 74.1211 211.794 78.0509L213.24 76.6691C209.656 72.9189 206.777 68.5395 204.603 63.5224L202.767 64.3176ZM211.802 78.0591C215.645 81.9897 220.101 85.091 225.164 87.3605L225.982 85.5355C221.146 83.3676 216.898 80.4103 213.232 76.6609L211.802 78.0591ZM225.17 87.3631C230.335 89.6391 235.806 90.776 241.573 90.776V88.776C236.076 88.776 230.881 87.6942 225.976 85.5329L225.17 87.3631ZM241.573 90.776C247.34 90.776 252.771 89.6391 257.854 87.3605L257.036 85.5355C252.22 87.6943 247.07 88.776 241.573 88.776V90.776ZM257.854 87.3605C262.919 85.0901 267.335 81.9864 271.096 78.0509L269.65 76.6691C266.072 80.4137 261.87 83.3686 257.036 85.5355L257.854 87.3605ZM271.088 78.0591C274.934 74.1254 277.948 69.5378 280.128 64.3046L278.282 63.5354C276.196 68.5422 273.321 72.9146 269.658 76.6609L271.088 78.0591ZM280.125 64.3121C282.398 58.9796 283.533 53.3419 283.533 47.408H281.533C281.533 53.0794 280.45 58.4497 278.285 63.5279L280.125 64.3121ZM283.533 47.408C283.533 41.3909 282.399 35.7508 280.123 30.4984L278.287 31.2936C280.449 36.2812 281.533 41.6491 281.533 47.408H283.533ZM280.128 30.5114C277.948 25.2782 274.934 20.6905 271.088 16.7569L269.658 18.1551C273.321 21.9014 276.196 26.2738 278.282 31.2806L280.128 30.5114ZM271.096 16.7651C267.335 12.8296 262.919 9.7259 257.854 7.45549L257.036 9.28051C261.87 11.4474 266.072 14.4023 269.65 18.1469L271.096 16.7651ZM257.854 7.45549C252.771 5.17692 247.34 4.03999 241.573 4.03999V6.03999C247.07 6.03999 252.22 7.12174 257.036 9.28051L257.854 7.45549ZM473.639 92.848L472.709 93.2151L472.725 93.2559L472.745 93.2952L473.639 92.848ZM443.687 16.944L442.738 17.2602L442.747 17.2859L442.757 17.3111L443.687 16.944ZM443.687 15.408L442.793 14.9608L442.761 15.0243L442.738 15.0918L443.687 15.408ZM444.711 14.384L444.395 13.4353L444.367 13.4446L444.34 13.4555L444.711 14.384ZM446.247 14.512L445.8 15.4064L445.863 15.4382L445.931 15.4607L446.247 14.512ZM447.271 15.536L446.322 15.8522L446.331 15.8779L446.341 15.9031L447.271 15.536ZM477.223 91.44L478.172 91.1238L478.163 91.0981L478.153 91.0729L477.223 91.44ZM477.223 92.976L476.274 92.6598L477.223 92.976ZM476.199 94L475.883 93.0513L475.815 93.0738L475.752 93.1056L476.199 94ZM404.135 94L404.582 93.1056L404.545 93.087L404.506 93.0715L404.135 94ZM403.111 92.976L402.162 93.2922L402.185 93.3596L402.217 93.4232L403.111 92.976ZM403.111 91.44L402.181 91.0718L402.171 91.0975L402.162 91.1238L403.111 91.44ZM438.439 2.224L439.369 2.59217L439.375 2.57635L439.381 2.56034L438.439 2.224ZM440.871 1.072L440.535 2.01374L440.545 2.01732L440.555 2.02068L440.871 1.072ZM441.895 2.09599L440.946 2.41222L440.969 2.47964L441.001 2.54321L441.895 2.09599ZM442.023 3.632L442.953 4.00016L442.963 3.97446L442.972 3.94823L442.023 3.632ZM406.695 92.848L405.765 92.4798L405.749 92.5196L405.737 92.5607L406.695 92.848ZM475.431 93.128C475.141 93.128 474.84 93.0138 474.533 92.4008L472.745 93.2952C473.291 94.3889 474.185 95.128 475.431 95.128V93.128ZM474.569 92.4809L444.617 16.5769L442.757 17.3111L472.709 93.2151L474.569 92.4809ZM444.636 16.6278C444.533 16.321 444.533 16.031 444.636 15.7242L442.738 15.0918C442.499 15.809 442.499 16.543 442.738 17.2602L444.636 16.6278ZM444.581 15.8552C444.756 15.5063 444.935 15.3714 445.082 15.3125L444.34 13.4555C443.633 13.738 443.13 14.2856 442.793 14.9608L444.581 15.8552ZM445.027 15.3327C445.271 15.2514 445.509 15.261 445.8 15.4064L446.694 13.6176C445.961 13.2509 445.175 13.1753 444.395 13.4353L445.027 15.3327ZM445.931 15.4607C446.144 15.5318 446.251 15.6388 446.322 15.8522L448.22 15.2198C447.949 14.4092 447.374 13.8335 446.563 13.5633L445.931 15.4607ZM446.341 15.9031L476.293 91.8071L478.153 91.0729L448.201 15.1689L446.341 15.9031ZM476.274 91.7562C476.377 92.063 476.377 92.353 476.274 92.6598L478.172 93.2922C478.411 92.575 478.411 91.841 478.172 91.1238L476.274 91.7562ZM476.274 92.6598C476.203 92.8732 476.096 92.9802 475.883 93.0513L476.515 94.9487C477.326 94.6785 477.901 94.1028 478.172 93.2922L476.274 92.6598ZM475.752 93.1056C475.781 93.0909 475.777 93.0992 475.715 93.1096C475.655 93.1196 475.563 93.128 475.431 93.128V95.128C475.823 95.128 476.267 95.0842 476.646 94.8944L475.752 93.1056ZM404.903 93.128C404.771 93.128 404.679 93.1196 404.619 93.1096C404.557 93.0992 404.553 93.0909 404.582 93.1056L403.688 94.8944C404.067 95.0842 404.511 95.128 404.903 95.128V93.128ZM404.506 93.0715C404.359 93.0126 404.18 92.8776 404.005 92.5288L402.217 93.4232C402.554 94.0984 403.057 94.646 403.764 94.9285L404.506 93.0715ZM404.06 92.6598C403.957 92.353 403.957 92.063 404.06 91.7562L402.162 91.1238C401.923 91.841 401.923 92.575 402.162 93.2922L404.06 92.6598ZM404.041 91.8082L439.369 2.59217L437.509 1.85583L402.181 91.0718L404.041 91.8082ZM439.381 2.56034C439.542 2.10817 439.714 1.98216 439.795 1.94374C439.876 1.90532 440.082 1.85225 440.535 2.01374L441.207 0.130257C440.465 -0.134921 439.668 -0.209318 438.939 0.136261C438.209 0.481841 437.762 1.14516 437.497 1.88766L439.381 2.56034ZM440.555 2.02068C440.768 2.09181 440.875 2.19883 440.946 2.41222L442.844 1.77976C442.573 0.969161 441.998 0.393513 441.187 0.123314L440.555 2.02068ZM441.001 2.54321C441.146 2.83397 441.156 3.07183 441.074 3.31577L442.972 3.94823C443.232 3.16817 443.156 2.38203 442.789 1.64878L441.001 2.54321ZM441.093 3.26383L405.765 92.4798L407.625 93.2162L442.953 4.00016L441.093 3.26383ZM405.737 92.5607C405.659 92.8216 405.556 92.9355 405.474 92.9943C405.387 93.0565 405.222 93.128 404.903 93.128V95.128C405.523 95.128 406.126 94.9861 406.636 94.6217C407.151 94.2538 407.475 93.7277 407.653 93.1353L405.737 92.5607ZM530.611 90.8L531.024 89.8891L531.009 89.8826L530.995 89.8765L530.611 90.8ZM516.147 80.816L516.875 80.1306L516.868 80.1235L516.147 80.816ZM506.419 65.968L505.494 66.3488L505.498 66.3586L506.419 65.968ZM506.419 29.488L507.34 29.8786L507.344 29.8687L506.419 29.488ZM516.147 14.64L516.854 15.3471L516.865 15.3362L516.876 15.3249L516.147 14.64ZM530.611 4.52799L530.214 3.61026L530.209 3.61247L530.611 4.52799ZM565.939 4.52799L566.341 3.61247V3.61247L565.939 4.52799ZM580.403 14.64L581.143 13.9673L581.137 13.9612L581.132 13.9551L580.403 14.64ZM580.403 17.328L579.696 16.6209V16.6209L580.403 17.328ZM577.715 17.328L577 18.0277L577.008 18.0351L577.715 17.328ZM564.147 7.98399L563.738 8.8965L563.747 8.90072L563.757 8.90475L564.147 7.98399ZM532.147 8.112L532.55 9.02718L532.563 9.02131L532.147 8.112ZM518.835 17.328L518.12 16.6287L518.12 16.6289L518.835 17.328ZM509.875 31.024L508.953 30.6373L508.95 30.6448L509.875 31.024ZM509.875 64.432L508.95 64.8113L508.955 64.8241L509.875 64.432ZM518.835 78.128L518.112 78.8192L518.12 78.8272L518.128 78.8351L518.835 78.128ZM532.147 87.344L531.731 88.2534L531.744 88.2591L532.147 87.344ZM564.275 87.472L564.665 88.3928L564.673 88.3896L564.275 87.472ZM577.843 78L577.136 77.2929L577.128 77.3004L577.121 77.3081L577.843 78ZM580.531 77.872L581.238 77.1649L581.203 77.1296L581.164 77.098L580.531 77.872ZM580.659 80.56L581.387 81.2454L581.411 81.2201L581.433 81.1932L580.659 80.56ZM566.067 90.8L566.464 91.7177L566.469 91.7155L566.067 90.8ZM548.275 93.512C542.095 93.512 536.349 92.3019 531.024 89.8891L530.198 91.7109C535.796 94.2474 541.826 95.512 548.275 95.512V93.512ZM530.995 89.8765C525.578 87.6264 520.874 84.3793 516.875 80.1306L515.419 81.5014C519.612 85.9567 524.551 89.3656 530.227 91.7235L530.995 89.8765ZM516.868 80.1235C512.859 75.9475 509.683 71.1014 507.34 65.5774L505.498 66.3586C507.934 72.0986 511.242 77.1511 515.426 81.5085L516.868 80.1235ZM507.344 65.5872C505.005 59.9078 503.835 53.936 503.835 47.664H501.835C501.835 54.192 503.054 60.4229 505.494 66.3487L507.344 65.5872ZM503.835 47.664C503.835 41.3047 505.006 35.3797 507.34 29.8785L505.498 29.0974C503.054 34.8603 501.835 41.0527 501.835 47.664H503.835ZM507.344 29.8687C509.687 24.1779 512.859 19.3422 516.854 15.3471L515.44 13.9329C511.243 18.1298 507.93 23.1928 505.494 29.1072L507.344 29.8687ZM516.876 15.3249C520.789 11.1612 525.498 7.86684 531.013 5.44351L530.209 3.61247C524.46 6.13849 519.526 9.58546 515.418 13.9551L516.876 15.3249ZM531.008 5.44571C536.604 3.02375 542.357 1.81599 548.275 1.81599V-0.184006C542.076 -0.184006 536.053 1.0829 530.214 3.61027L531.008 5.44571ZM548.275 1.81599C554.28 1.81599 560.031 3.02449 565.537 5.44351L566.341 3.61247C560.583 1.08217 554.558 -0.184006 548.275 -0.184006V1.81599ZM565.537 5.44351C571.052 7.86684 575.76 11.1612 579.674 15.3249L581.132 13.9551C577.024 9.58546 572.09 6.13849 566.341 3.61247L565.537 5.44351ZM579.663 15.3127C579.992 15.6742 580.043 15.9035 580.043 16.016C580.043 16.1171 580.002 16.3148 579.696 16.6209L581.11 18.0351C581.657 17.4879 582.043 16.8109 582.043 16.016C582.043 15.2325 581.668 14.5445 581.143 13.9673L579.663 15.3127ZM579.696 16.6209C579.421 16.8961 579.195 16.968 578.995 16.968V18.968C579.819 18.968 580.532 18.6133 581.11 18.0351L579.696 16.6209ZM578.995 16.968C578.927 16.968 578.74 16.9386 578.422 16.6209L577.008 18.0351C577.544 18.5708 578.21 18.968 578.995 18.968V16.968ZM578.43 16.6284C574.331 12.4426 569.699 9.25061 564.537 7.06324L563.757 8.90475C568.664 10.984 573.078 14.0214 577 18.0276L578.43 16.6284ZM564.556 7.07148C559.473 4.79292 554.042 3.656 548.275 3.656V5.656C553.772 5.656 558.922 6.73774 563.738 8.8965L564.556 7.07148ZM548.275 3.656C542.419 3.656 536.9 4.83696 531.731 7.20269L532.563 9.02131C537.463 6.77904 542.696 5.656 548.275 5.656V3.656ZM531.744 7.19691C526.593 9.46689 522.049 12.6121 518.12 16.6287L519.55 18.0273C523.3 14.1933 527.632 11.1944 532.55 9.02709L531.744 7.19691ZM518.12 16.6289C514.271 20.565 511.217 25.2384 508.953 30.6373L510.797 31.4107C512.97 26.2283 515.889 21.771 519.55 18.0271L518.12 16.6289ZM508.95 30.6448C506.765 35.976 505.675 41.6521 505.675 47.664H507.675C507.675 41.8999 508.719 36.4826 510.8 31.4032L508.95 30.6448ZM505.675 47.664C505.675 53.7592 506.764 59.4782 508.95 64.8112L510.8 64.0528C508.719 58.9751 507.675 53.5154 507.675 47.664H505.675ZM508.955 64.8241C511.219 70.1355 514.271 74.8033 518.112 78.8192L519.558 77.4368C515.89 73.6021 512.968 69.1391 510.795 64.0399L508.955 64.8241ZM518.128 78.8351C522.054 82.761 526.59 85.9008 531.731 88.2533L532.563 86.4347C527.635 84.1792 523.296 81.175 519.542 77.4209L518.128 78.8351ZM531.744 88.2591C536.91 90.5359 542.424 91.672 548.275 91.672V89.672C542.691 89.672 537.453 88.5894 532.55 86.4289L531.744 88.2591ZM548.275 91.672C554.037 91.672 559.503 90.58 564.665 88.3928L563.885 86.5512C558.977 88.6307 553.777 89.672 548.275 89.672V91.672ZM564.673 88.3896C569.917 86.1171 574.549 82.8823 578.565 78.6919L577.121 77.3081C573.286 81.3097 568.873 84.3896 563.877 86.5544L564.673 88.3896ZM578.55 78.7071C578.863 78.3947 579.078 78.3328 579.203 78.3269C579.328 78.3209 579.552 78.3627 579.898 78.646L581.164 77.098C580.572 76.6133 579.878 76.2924 579.107 76.3291C578.336 76.3659 577.677 76.752 577.136 77.2929L578.55 78.7071ZM579.824 78.5791C580.136 78.8915 580.198 79.1072 580.204 79.2316C580.21 79.3569 580.168 79.5806 579.885 79.9268L581.433 81.1932C581.918 80.6008 582.239 79.9071 582.202 79.1364C582.165 78.3648 581.779 77.7058 581.238 77.1649L579.824 78.5791ZM579.931 79.8746C575.93 84.1259 571.177 87.4622 565.665 89.8845L566.469 91.7155C572.221 89.1884 577.196 85.6981 581.387 81.2454L579.931 79.8746ZM565.67 89.8823C560.076 92.3035 554.28 93.512 548.275 93.512V95.512C554.558 95.512 560.623 94.2459 566.464 91.7177L565.67 89.8823ZM645.673 93.104L644.892 93.7287L644.927 93.7719L644.966 93.8111L645.673 93.104ZM645.673 1.2L646.38 1.9071L646.419 1.86794L646.454 1.82469L645.673 1.2ZM648.361 1.2L647.58 1.82469L647.65 1.91146L647.736 1.98086L648.361 1.2ZM648.361 93.104L649.068 93.8111L648.361 93.104ZM610.217 4.52799L609.436 5.15269L609.506 5.23945L609.592 5.30886L610.217 4.52799ZM610.217 1.84L609.51 1.13289V1.13289L610.217 1.84ZM683.817 1.84L683.036 2.46469L683.071 2.50794L683.11 2.5471L683.817 1.84ZM683.817 4.52799L684.524 5.2351L684.563 5.19593L684.598 5.15268L683.817 4.52799ZM647.081 92.616C646.682 92.616 646.491 92.5083 646.38 92.3969L644.966 93.8111C645.537 94.3824 646.285 94.616 647.081 94.616V92.616ZM646.454 92.4793C646.244 92.2172 646.161 91.9651 646.161 91.696H644.161C644.161 92.4509 644.419 93.1375 644.892 93.7287L646.454 92.4793ZM646.161 91.696V2.48H644.161V91.696H646.161ZM646.161 2.48C646.161 2.21536 646.239 2.04864 646.38 1.9071L644.966 0.49289C644.425 1.03402 644.161 1.72063 644.161 2.48H646.161ZM646.454 1.82469C646.586 1.65941 646.755 1.56 647.081 1.56V-0.440002C646.212 -0.440002 645.443 -0.112749 644.892 0.575301L646.454 1.82469ZM647.081 1.56C647.266 1.56 647.414 1.6169 647.58 1.82469L649.142 0.575301C648.625 -0.0702431 647.919 -0.440002 647.081 -0.440002V1.56ZM647.736 1.98086C647.944 2.1471 648.001 2.29451 648.001 2.48H650.001C650.001 1.64148 649.631 0.935566 648.986 0.419129L647.736 1.98086ZM648.001 2.48V91.696H650.001V2.48H648.001ZM648.001 91.696C648.001 91.8958 647.929 92.1217 647.654 92.3969L649.068 93.8111C649.646 93.2329 650.001 92.5202 650.001 91.696H648.001ZM647.654 92.3969C647.512 92.5384 647.346 92.616 647.081 92.616V94.616C647.84 94.616 648.527 94.3522 649.068 93.8111L647.654 92.3969ZM682.409 4.03999H611.625V6.03999H682.409V4.03999ZM611.625 4.03999C611.356 4.03999 611.104 3.95683 610.842 3.74712L609.592 5.30886C610.184 5.78182 610.87 6.03999 611.625 6.03999V4.03999ZM610.998 3.9033C610.788 3.64116 610.705 3.38907 610.705 3.12H608.705C608.705 3.87491 608.963 4.56149 609.436 5.15269L610.998 3.9033ZM610.705 3.12C610.705 2.85536 610.783 2.68864 610.924 2.5471L609.51 1.13289C608.969 1.67402 608.705 2.36063 608.705 3.12H610.705ZM610.924 2.5471C611.199 2.27194 611.425 2.2 611.625 2.2V0.199997C610.801 0.199997 610.088 0.554721 609.51 1.13289L610.924 2.5471ZM611.625 2.2H682.409V0.199997H611.625V2.2ZM682.409 2.2C682.735 2.2 682.904 2.29941 683.036 2.46469L684.598 1.2153C684.047 0.52725 683.278 0.199997 682.409 0.199997V2.2ZM683.11 2.5471C683.251 2.68864 683.329 2.85536 683.329 3.12H685.329C685.329 2.36064 685.065 1.67402 684.524 1.13289L683.11 2.5471ZM683.329 3.12C683.329 3.38908 683.246 3.64117 683.036 3.9033L684.598 5.15268C685.071 4.56149 685.329 3.87491 685.329 3.12H683.329ZM683.11 3.82089C682.999 3.93225 682.808 4.03999 682.409 4.03999V6.03999C683.205 6.03999 683.953 5.80641 684.524 5.2351L683.11 3.82089Z" fill="white"/>
</svg>
