<?xml version="1.0" encoding="UTF-8"?>
<svg width="26px" height="26px" viewBox="0 0 26 26" version="1.1" xmlns="http://www.w3.org/2000/svg" xmlns:xlink="http://www.w3.org/1999/xlink">
    <!-- Generator: Sketch 55.1 (78136) - https://sketchapp.com -->
    <title>phone</title>
    <desc>Created with Sketch.</desc>
    <defs>
        <path d="M26.5935673,3.7475633 L21.5253412,2.57797265 C20.9746589,2.45126699 20.4093568,2.73879136 20.1851852,3.25536057 L17.8460039,8.71345026 C17.6413255,9.19103311 17.7777778,9.75146196 18.1822612,10.0779727 L21.1354776,12.4951267 C19.3810916,16.2329435 16.3157895,19.3421053 12.5,21.1306043 L10.082846,18.1773879 C9.75146196,17.7729045 9.1959064,17.6364523 8.71832356,17.8411306 L3.26023386,20.1803119 C2.73879136,20.4093568 2.45126699,20.9746589 2.57797265,21.5253412 L3.7475633,26.5935673 C3.86939566,27.1198831 4.33723192,27.5000001 4.88791418,27.5000001 C17.3684211,27.5000001 27.5000001,17.3879142 27.5000001,4.88791418 C27.5000001,4.34210521 27.1247564,3.86939566 26.5935673,3.7475633 Z" id="path-1"></path>
    </defs>
    <g id="Page-1" stroke="none" stroke-width="1" fill="none" fill-rule="evenodd">
        <g id="Desktop-HD-altmind" transform="translate(-930.000000, -2388.000000)">
            <g id="Contact-us" transform="translate(0.000000, 2038.000000)">
                <g id="Contact-Information" transform="translate(927.000000, 298.000000)">
                    <g id="Tel-2" transform="translate(1.250000, 47.500000)">
                        <g id="phone" transform="translate(15.000000, 17.500000) scale(-1, 1) translate(-15.000000, -17.500000) translate(0.000000, 2.500000)">
                            <mask id="mask-2" fill="white">
                                <use xlink:href="#path-1"></use>
                            </mask>
                            <g></g>
                            <g id="🎨-color" stroke-width="1" fill-rule="evenodd" mask="url(#mask-2)" fill="#FFFFFF">
                                <rect id="🎨-Color" x="0" y="0" width="30" height="30"></rect>
                            </g>
                        </g>
                    </g>
                </g>
            </g>
        </g>
    </g>
</svg>