<svg width="64" height="64" viewBox="0 0 64 64" fill="none" xmlns="http://www.w3.org/2000/svg">
<path d="M56.381 0H7.61905C3.4179 0 0 3.4179 0 7.61905V56.381C0 60.5821 3.4179 64 7.61905 64H56.381C60.5821 64 64 60.5821 64 56.381V7.61905C64 3.4179 60.5821 0 56.381 0ZM50.2949 27.9208C49.949 27.9528 49.5985 27.9741 49.2434 27.9741C45.2465 27.9741 41.7341 25.9185 39.6907 22.8114C39.6907 30.9623 39.6907 40.2362 39.6907 40.3916C39.6907 47.5672 33.8728 53.3851 26.6971 53.3851C19.5215 53.3851 13.7036 47.5672 13.7036 40.3916C13.7036 33.216 19.5215 27.3981 26.6971 27.3981C26.9684 27.3981 27.2335 27.4225 27.5002 27.4392V33.8423C27.2335 33.8103 26.9714 33.7615 26.6971 33.7615C23.0339 33.7615 20.0655 36.7299 20.0655 40.3931C20.0655 44.0564 23.0339 47.0248 26.6971 47.0248C30.3604 47.0248 33.5954 44.1387 33.5954 40.4754C33.5954 40.3307 33.6594 10.6179 33.6594 10.6179H39.779C40.355 16.0899 44.7726 20.4084 50.2949 20.8046V27.9208Z" fill="black"/>
</svg>
