<svg width="64" height="64" viewBox="0 0 64 64" fill="none" xmlns="http://www.w3.org/2000/svg">
<path d="M7.61905 0C3.41333 0 0 3.41333 0 7.61905V56.381C0 60.5867 3.41333 64 7.61905 64H56.381C60.5867 64 64 60.5867 64 56.381V7.61905C64 3.41333 60.5867 0 56.381 0H7.61905ZM16.7619 6.09524H20.4196L22.8571 12.1905L25.2946 6.09524H28.9524L24.381 16.7619V22.8571H21.3333V16.747C20.419 14.2937 17.3867 7.63429 16.7619 6.09524ZM32 10.6667C33.3562 10.6667 34.6973 11.0769 35.5506 12.1131C36.2058 12.8598 36.5714 14.064 36.5714 15.6488V17.875C36.5714 19.4598 36.268 20.5569 35.628 21.3036C34.7746 22.3245 33.3562 22.8571 32 22.8571C30.6438 22.8571 29.2581 22.3245 28.4048 21.3036C27.7495 20.5569 27.4286 19.4598 27.4286 17.875V15.6637C27.4286 14.0789 27.7789 12.8598 28.4494 12.1131C29.3027 11.0769 30.461 10.6667 32 10.6667ZM38.0952 10.6667H41.1429V19.8095C41.219 20.221 41.66 20.4048 42.0714 20.4048C42.6962 20.4048 43.4895 19.6737 44.1905 18.8661V10.6667H47.2381V22.8571H44.1905V20.753C42.9562 21.9568 41.9045 22.8582 40.5179 22.8125C39.5121 22.782 38.8118 22.416 38.4613 21.6845C38.248 21.2579 38.0952 20.5712 38.0952 19.5655V10.6667ZM32 13.1339C31.7905 13.1339 31.5899 13.1799 31.4077 13.2589C31.2256 13.338 31.0607 13.4513 30.9226 13.5923C30.7845 13.7332 30.6726 13.9006 30.5952 14.0863C30.5179 14.272 30.4762 14.4771 30.4762 14.6905V18.9702C30.4762 19.3969 30.6464 19.7865 30.9226 20.0685C31.0607 20.2094 31.2256 20.3227 31.4077 20.4018C31.5899 20.4808 31.7905 20.5268 32 20.5268C32.2095 20.5268 32.4101 20.4808 32.5923 20.4018C33.1387 20.1646 33.5238 19.6102 33.5238 18.9702V14.6905C33.5238 13.8371 32.8381 13.1339 32 13.1339ZM31.9851 27.4286H32.0149C32.0149 27.4286 42.2388 27.429 49.0655 27.9167C50.0255 28.0233 52.0993 28.0387 53.9583 29.9435C55.4212 31.3758 55.8929 34.6667 55.8929 34.6667C55.8929 34.6667 56.381 36.9989 56.381 40.8542V44.4643C56.381 48.3195 55.8929 50.6518 55.8929 50.6518C55.8929 50.6518 55.4212 53.9426 53.9583 55.375C52.0993 57.2798 50.0255 57.2951 49.0655 57.4018C42.2388 57.8894 32 57.9048 32 57.9048C32 57.9048 19.3206 57.7824 15.4196 57.4167C14.3377 57.2186 11.9007 57.2794 10.0417 55.3899C8.57881 53.9423 8.10714 50.6518 8.10714 50.6518C8.10714 50.6518 7.61905 48.3195 7.61905 44.4643V40.8542C7.61905 36.9989 8.10714 34.6667 8.10714 34.6667C8.10714 34.6667 8.57881 31.3758 10.0417 29.9435C11.9007 28.0387 13.9745 28.0233 14.9345 27.9167C21.7612 27.429 31.9851 27.4286 31.9851 27.4286ZM12.1905 33.5238V36.5387H15.2381V51.8095H18.2857V36.5387H21.3333V33.5238H12.1905ZM32 33.5238V51.8095H35.0476V49.9048C36.0091 51.0949 37.2617 51.8095 38.2857 51.8095C39.4316 51.8095 40.4315 51.1929 40.8155 50.0119C40.9968 49.3734 41.1307 48.7771 41.1429 47.4286V43.2381C41.1429 41.7326 40.939 40.5983 40.747 39.9583C40.363 38.7682 39.4331 38.1029 38.2857 38.0952C36.7924 38.0846 36.1905 38.8571 35.0476 40.1905V33.5238H32ZM21.3333 38.0952V48.2827C21.3333 49.3829 21.4864 50.1211 21.6845 50.6042C22.0198 51.3874 22.7033 51.8095 23.6786 51.8095C24.791 51.8095 26.2248 51.0259 27.4286 49.7292V51.8095H30.4762V38.0952H27.4286V47.6488C26.7581 48.5387 25.7821 49.2024 25.1726 49.2024C24.7764 49.2024 24.4571 49.0355 24.381 48.5982V38.0952H21.3333ZM47.2827 38.0952C45.7467 38.0952 44.5471 38.5783 43.6786 39.4911C43.0386 40.1646 42.6667 41.2656 42.6667 42.6935V47.3661C42.6667 48.7847 43.0758 49.7775 43.7143 50.4435C44.5844 51.3562 45.7816 51.8095 47.3542 51.8095C48.9252 51.8095 50.162 51.3322 50.994 50.3631C51.3598 49.9349 51.5943 49.453 51.6964 48.9167C51.7239 48.6744 51.8095 48.0168 51.8095 47.2381H48.7619V48.4554C48.7619 49.1624 48.0792 49.7351 47.2381 49.7351C46.397 49.7351 45.7143 49.1609 45.7143 48.4554V45.7143H51.8095V44.8363V42.6339C51.8095 41.2092 51.4597 40.1661 50.8304 39.4911C49.9877 38.5783 48.7913 38.0952 47.2827 38.0952ZM47.2381 40.3006C48.0792 40.3006 48.7619 40.8748 48.7619 41.5804V43.6042H45.7143V41.5804C45.7143 40.8733 46.397 40.3006 47.2381 40.3006ZM36.9077 40.756C37.7382 40.756 38.0952 41.2663 38.0952 42.8571V47.0476C38.0952 48.6385 37.7382 49.1875 36.9077 49.1875C36.4338 49.1875 35.5291 48.8625 35.0476 48.381V41.7143C35.5291 41.2389 36.4338 40.756 36.9077 40.756Z" fill="black"/>
</svg>
